<svg width="19" height="21" viewBox="0 0 19 21" fill="none" xmlns="http://www.w3.org/2000/svg">
<path d="M13.25 5.60834C13.25 6.92911 12.7459 8.12639 12.0104 8.99077C11.2681 9.8632 10.3341 10.35 9.50002 10.35C8.66593 10.35 7.73188 9.86311 6.98958 8.99071C6.25412 8.12635 5.75 6.92911 5.75 5.60834C5.75 4.19488 5.97294 3.00677 6.53213 2.18266C7.06569 1.39633 7.95744 0.866669 9.5 0.866669C11.0426 0.866669 11.9343 1.39633 12.4679 2.18266C13.0271 3.00677 13.25 4.19488 13.25 5.60834Z" stroke="white"/>
<path d="M6 11.4999C6 11.4999 4.38319 12.0087 4.16667 12.0929C4.09273 12.1217 3.74597 12.2268 3.32132 12.3528C2.13369 12.7051 1.20325 13.6654 1.07076 14.897C0.951113 16.0093 0.93878 17.2625 1.3937 17.7142C2.27954 18.5938 4.85633 19.6333 9.44633 19.6333C14.0363 19.6333 16.3716 18.8337 17.499 17.7142C18.094 17.1233 18.0609 15.8196 17.897 14.7202C17.727 13.5799 16.8289 12.727 15.7215 12.4064C15.213 12.2591 14.7678 12.1283 14.6667 12.0929C14.4048 12.0012 13 11.4999 13 11.4999" stroke="white" stroke-linecap="round"/>
</svg>
