<svg width="47" height="17" viewBox="0 0 47 17" fill="none" xmlns="http://www.w3.org/2000/svg">
<path fill-rule="evenodd" clip-rule="evenodd" d="M11.423 4.03005C11.2898 3.62019 10.71 3.62019 10.5768 4.03005L9.70146 6.72406C9.64191 6.90736 9.4711 7.03146 9.27837 7.03146H6.44572C6.01477 7.03146 5.83558 7.58292 6.18423 7.83623L8.47589 9.50122C8.63181 9.61451 8.69706 9.8153 8.6375 9.9986L7.76217 12.6926C7.62899 13.1025 8.0981 13.4433 8.44675 13.19L10.7384 11.525C10.8943 11.4117 11.1055 11.4117 11.2614 11.525L13.553 13.19C13.9017 13.4433 14.3708 13.1025 14.2376 12.6926L13.6956 11.0243C13.5873 10.6911 13.3883 10.3898 13.0996 10.1913C12.7043 9.91973 12.2597 9.69757 11.6669 9.62348C11.0126 9.5417 10.3508 9.58114 9.9161 9.60704C9.82187 9.61266 9.79478 9.50603 9.88153 9.46882C10.547 9.18333 11.6661 8.83271 12.5567 8.73375C13.3204 8.64888 13.9978 8.69351 14.3912 8.71944C14.5158 8.72765 14.6388 8.6912 14.7398 8.61782L15.8156 7.83623C16.1642 7.58292 15.985 7.03146 15.5541 7.03146H12.7214C12.5287 7.03146 12.3579 6.90736 12.2983 6.72406L11.423 4.03005Z" fill="white"/>
<path d="M24.6178 4.6C25.7058 4.6 26.5618 4.86 27.1858 5.38C27.8098 5.9 28.1218 6.616 28.1218 7.528C28.1218 8.44 27.8098 9.156 27.1858 9.676C26.5618 10.196 25.7058 10.456 24.6178 10.456H22.5418V13H21.3418V4.6H24.6178ZM24.5818 9.412C25.3418 9.412 25.9218 9.252 26.3218 8.932C26.7218 8.604 26.9218 8.136 26.9218 7.528C26.9218 6.92 26.7218 6.456 26.3218 6.136C25.9218 5.808 25.3418 5.644 24.5818 5.644H22.5418V9.412H24.5818ZM30.7153 7.708C30.9153 7.34 31.2113 7.06 31.6033 6.868C31.9953 6.676 32.4713 6.58 33.0313 6.58V7.696C32.9673 7.688 32.8793 7.684 32.7673 7.684C32.1433 7.684 31.6513 7.872 31.2913 8.248C30.9393 8.616 30.7633 9.144 30.7633 9.832V13H29.6113V6.64H30.7153V7.708ZM37.1165 13.072C36.4845 13.072 35.9165 12.932 35.4125 12.652C34.9085 12.372 34.5125 11.988 34.2245 11.5C33.9445 11.004 33.8045 10.444 33.8045 9.82C33.8045 9.196 33.9445 8.64 34.2245 8.152C34.5125 7.656 34.9085 7.272 35.4125 7C35.9165 6.72 36.4845 6.58 37.1165 6.58C37.7485 6.58 38.3125 6.72 38.8085 7C39.3125 7.272 39.7045 7.656 39.9845 8.152C40.2725 8.64 40.4165 9.196 40.4165 9.82C40.4165 10.444 40.2725 11.004 39.9845 11.5C39.7045 11.988 39.3125 12.372 38.8085 12.652C38.3125 12.932 37.7485 13.072 37.1165 13.072ZM37.1165 12.064C37.5245 12.064 37.8885 11.972 38.2085 11.788C38.5365 11.596 38.7925 11.332 38.9765 10.996C39.1605 10.652 39.2525 10.26 39.2525 9.82C39.2525 9.38 39.1605 8.992 38.9765 8.656C38.7925 8.312 38.5365 8.048 38.2085 7.864C37.8885 7.68 37.5245 7.588 37.1165 7.588C36.7085 7.588 36.3405 7.68 36.0125 7.864C35.6925 8.048 35.4365 8.312 35.2445 8.656C35.0605 8.992 34.9685 9.38 34.9685 9.82C34.9685 10.26 35.0605 10.652 35.2445 10.996C35.4365 11.332 35.6925 11.596 36.0125 11.788C36.3405 11.972 36.7085 12.064 37.1165 12.064Z" fill="white"/>
<rect x="0.5" y="0.5" width="45.9998" height="16" rx="7.5" stroke="white"/>
</svg>
