<svg width="21" height="20" viewBox="0 0 21 20" fill="none" xmlns="http://www.w3.org/2000/svg">
<path d="M1.13505 8.37143L3.84031 5.66617C4.28541 5.22107 5.01452 5.24655 5.42746 5.72163L17.2857 19.3643M12.6714 14.0714L15.3767 11.3662C15.8218 10.9211 16.5509 10.9466 16.9638 11.4216L19.8643 14.7585M2.08571 19.5H18.9143C19.5139 19.5 20 19.0139 20 18.4143V1.58571C20 0.986091 19.5139 0.5 18.9143 0.5H2.08571C1.48609 0.5 1 0.986091 1 1.58571V18.4143C1 19.0139 1.48609 19.5 2.08571 19.5ZM16.7429 5.92857C16.7429 7.42763 15.5276 8.64286 14.0286 8.64286C12.5295 8.64286 11.3143 7.42763 11.3143 5.92857C11.3143 4.42951 12.5295 3.21429 14.0286 3.21429C15.5276 3.21429 16.7429 4.42951 16.7429 5.92857Z" stroke="white"/>
</svg>
