<svg width="43" height="43" viewBox="0 0 43 43" fill="none" xmlns="http://www.w3.org/2000/svg">
<path d="M15.04 28.7775H27.8921C29.605 28.7775 30.466 27.9336 30.466 26.2451V17.5323C30.466 15.8438 29.605 14.9912 27.8921 14.9912H15.04C13.327 14.9912 12.466 15.8438 12.466 17.5323V26.2451C12.466 27.9336 13.3267 28.7775 15.04 28.7775ZM13.7859 17.6064C13.7859 16.7538 14.2451 16.3114 15.0644 16.3114H27.8757C28.687 16.3114 29.1462 16.7538 29.1462 17.6064V18.2947H13.7859V17.6064ZM15.0644 27.4587C14.2447 27.4587 13.7859 27.024 13.7859 26.1717V20.1552H29.1462V26.1714C29.1462 27.0236 28.687 27.4583 27.8757 27.4583L15.0644 27.4587ZM16.0069 25.032H18.0154C18.499 25.032 18.8187 24.7123 18.8187 24.2451V22.7287C18.8187 22.2699 18.499 21.9419 18.0154 21.9419H16.0069C15.5233 21.9419 15.2036 22.2699 15.2036 22.7287V24.2451C15.2036 24.7123 15.5233 25.032 16.0069 25.032Z" fill="#545454"/>
</svg>
