<svg width="43" height="42" viewBox="0 0 43 42" fill="none" xmlns="http://www.w3.org/2000/svg">
<path d="M25.966 13.9612V11.9612M16.966 13.9612V11.9612M12.716 16.9612H30.216M12.466 20.9612C12.466 16.7182 12.466 15.5972 13.784 14.2792C15.102 12.9612 17.224 12.9612 21.466 12.9612C25.709 12.9612 27.83 12.9612 29.148 14.2792C30.466 15.5972 30.466 16.7192 30.466 20.9612C30.466 25.2042 30.466 27.3252 29.148 28.6432C27.83 29.9612 25.708 29.9612 21.466 29.9612C17.223 29.9612 15.102 29.9612 13.784 28.6432C12.466 27.3252 12.466 25.2032 12.466 20.9612Z" stroke="#545454" stroke-width="1.5" stroke-linecap="round" stroke-linejoin="round"/>
</svg>
