<svg width="240" height="64" viewBox="0 0 240 64" fill="none" xmlns="http://www.w3.org/2000/svg">
<path fill-rule="evenodd" clip-rule="evenodd" d="M205.316 54.9447C216.105 54.9447 224.851 46.1139 224.851 35.2206C224.851 24.3273 216.105 15.4966 205.316 15.4966C194.527 15.4966 185.781 24.3273 185.781 35.2206C185.781 46.1139 194.527 54.9447 205.316 54.9447ZM205.316 45.2839C210.821 45.2839 215.283 40.7784 215.283 35.2206C215.283 29.6628 210.821 25.1573 205.316 25.1573C199.812 25.1573 195.349 29.6628 195.349 35.2206C195.349 40.7784 199.812 45.2839 205.316 45.2839Z" fill="white"/>
<path d="M215.283 35.623H224.851V63.8003H215.283V35.623Z" fill="white"/>
<path fill-rule="evenodd" clip-rule="evenodd" d="M19.5349 54.9447C30.3238 54.9447 39.0699 46.1139 39.0699 35.2206C39.0699 24.3273 30.3238 15.4966 19.5349 15.4966C8.74609 15.4966 0 24.3273 0 35.2206C0 46.1139 8.74609 54.9447 19.5349 54.9447ZM19.5349 45.2839C25.0395 45.2839 29.5017 40.7784 29.5017 35.2206C29.5017 29.6628 25.0395 25.1573 19.5349 25.1573C14.0304 25.1573 9.56813 29.6628 9.56813 35.2206C9.56813 40.7784 14.0304 45.2839 19.5349 45.2839Z" fill="white"/>
<path fill-rule="evenodd" clip-rule="evenodd" d="M111.23 54.9447C122.018 54.9447 130.764 46.1139 130.764 35.2206C130.764 24.3273 122.018 15.4966 111.23 15.4966C100.441 15.4966 91.6946 24.3273 91.6946 35.2206C91.6946 46.1139 100.441 54.9447 111.23 54.9447ZM111.23 45.2839C116.734 45.2839 121.196 40.7784 121.196 35.2206C121.196 29.6628 116.734 25.1573 111.23 25.1573C105.725 25.1573 101.263 29.6628 101.263 35.2206C101.263 40.7784 105.725 45.2839 111.23 45.2839Z" fill="white"/>
<path d="M0 35.623H9.56813V63.8003H0V35.623Z" fill="white"/>
<path d="M46.2461 0.200195H55.8142V54.9445H46.2461V0.200195Z" fill="white"/>
<path d="M75.7478 35.623H85.3159V54.9446H75.7478V35.623Z" fill="white"/>
<path fill-rule="evenodd" clip-rule="evenodd" d="M65.781 25.1573C60.396 25.1573 55.8142 29.7208 55.8142 35.6232H46.2461C46.2461 24.6298 54.8727 15.4966 65.781 15.4966C76.6893 15.4966 85.316 24.6298 85.316 35.6232H75.7478C75.7478 29.7208 71.1661 25.1573 65.781 25.1573Z" fill="white"/>
<path d="M230.861 0.525086L231.49 2.6838C231.913 4.13192 232.688 5.45 233.745 6.51739C234.802 7.58478 236.107 8.36738 237.542 8.79355L239.68 9.4289C240.107 9.55524 240.107 10.1671 239.68 10.2944L237.541 10.9297C236.107 11.356 234.801 12.1387 233.744 13.2061C232.687 14.2734 231.912 15.5914 231.49 17.0395L230.861 19.1982C230.735 19.6296 230.129 19.6296 230.003 19.1982L229.374 17.0386C228.952 15.5907 228.177 14.2729 227.12 13.2057C226.063 12.1384 224.758 11.3559 223.324 10.9297L221.186 10.2944C220.757 10.168 220.757 9.55614 221.186 9.42799L223.324 8.79265C224.758 8.36657 226.063 7.5841 227.12 6.51688C228.177 5.44965 228.953 4.13175 229.375 2.6838L230.003 0.525086C230.03 0.431357 230.087 0.349023 230.164 0.290443C230.241 0.231862 230.335 0.200195 230.432 0.200195C230.529 0.200195 230.623 0.231862 230.7 0.290443C230.778 0.349023 230.834 0.431357 230.861 0.525086Z" fill="white"/>
<path d="M169.834 15.4966H179.403V54.9447H169.834V15.4966Z" fill="white"/>
<path d="M140.333 8.25098H149.901V41.2586H140.333V8.25098Z" fill="white"/>
<path d="M159.469 15.4966L159.469 25.1573L135.548 25.1573L135.548 15.4966L159.469 15.4966Z" fill="white"/>
<path fill-rule="evenodd" clip-rule="evenodd" d="M149.901 27.2896C144.282 29.4564 140.333 34.5848 140.333 40.5661C140.333 48.5072 147.294 54.9447 155.881 54.9447C158.765 54.9447 161.466 54.2183 163.782 52.9525L160.312 44.7297C159.213 45.5794 157.809 46.089 156.279 46.089C152.809 46.089 149.985 43.4649 149.903 40.1982L149.901 40.1974V40.051V27.2896Z" fill="white"/>
<path d="M180.2 5.83564C180.2 8.94801 177.701 11.4711 174.619 11.4711C171.536 11.4711 169.037 8.94801 169.037 5.83564C169.037 2.72327 171.536 0.200195 174.619 0.200195C177.701 0.200195 180.2 2.72327 180.2 5.83564Z" fill="white"/>
</svg>
