<svg width="14" height="14" viewBox="0 0 14 14" fill="none" xmlns="http://www.w3.org/2000/svg">
<path fill-rule="evenodd" clip-rule="evenodd" d="M7.93921 1.3466C7.76505 0.810575 7.00671 0.810572 6.83255 1.3466L5.68777 4.86987C5.60988 5.10959 5.38649 5.27189 5.13444 5.27189H1.42985C0.866238 5.27189 0.631897 5.99311 1.08787 6.32439L4.08494 8.50189C4.28886 8.65005 4.37419 8.91266 4.2963 9.15238L3.15152 12.6756C2.97735 13.2117 3.59086 13.6574 4.04683 13.3261L7.0439 11.1486C7.24782 11.0005 7.52394 11.0005 7.72786 11.1486L10.7249 13.3261C11.1809 13.6574 11.7944 13.2117 11.6202 12.6756L10.9114 10.4941C10.7698 10.0583 10.5096 9.66429 10.132 9.40474C9.615 9.04941 9.03337 8.75872 8.25797 8.66181C7.40224 8.55485 6.53664 8.60643 5.96819 8.64031C5.84495 8.64765 5.80952 8.5082 5.92298 8.45953C6.79333 8.08617 8.25689 7.62762 9.42158 7.49819C10.4204 7.3872 11.3063 7.44558 11.8208 7.47949C11.9839 7.49023 12.1449 7.44251 12.2771 7.34645L13.6839 6.32439C14.1399 5.99311 13.9055 5.27189 13.3419 5.27189H9.63733C9.38527 5.27189 9.16188 5.10959 9.08399 4.86987L7.93921 1.3466Z" fill="white"/>
</svg>
