<svg width="19" height="19" viewBox="0 0 19 19" fill="none" xmlns="http://www.w3.org/2000/svg">
<path opacity="0.6" d="M9.46606 0.883301C4.49806 0.883301 0.466064 4.9153 0.466064 9.8833C0.466064 14.8513 4.49806 18.8833 9.46606 18.8833C14.4341 18.8833 18.4661 14.8513 18.4661 9.8833C18.4661 4.9153 14.4341 0.883301 9.46606 0.883301ZM10.7351 15.3643V17.0833H8.33206V15.3463C6.79306 15.0223 5.48806 14.0323 5.38906 12.2863H7.15306C7.24306 13.2313 7.89106 13.9693 9.53806 13.9693C11.3021 13.9693 11.6981 13.0873 11.6981 12.5383C11.6981 11.7913 11.3021 11.0893 9.29506 10.6123C7.06306 10.0723 5.53306 9.1543 5.53306 7.3093C5.53306 5.7613 6.78406 4.7533 8.33206 4.4203V2.6833H10.7351V4.4383C12.4091 4.8433 13.2461 6.1123 13.3001 7.4893H11.5361C11.4911 6.4903 10.9601 5.8063 9.53806 5.8063C8.18806 5.8063 7.37806 6.4183 7.37806 7.2823C7.37806 8.0383 7.96306 8.5333 9.78106 9.0013C11.5991 9.4693 13.5431 10.2523 13.5431 12.5203C13.5341 14.1673 12.3011 15.0673 10.7351 15.3643Z" fill="#8C8C8C"/>
</svg>
