<svg width="19" height="19" viewBox="0 0 19 19" fill="none" xmlns="http://www.w3.org/2000/svg">
<path opacity="0.6" d="M9.46606 0.960938C4.49806 0.960938 0.466064 4.99294 0.466064 9.96094C0.466064 14.9289 4.49806 18.9609 9.46606 18.9609C14.4341 18.9609 18.4661 14.9289 18.4661 9.96094C18.4661 4.99294 14.4341 0.960938 9.46606 0.960938ZM9.46606 3.66094C10.9601 3.66094 12.1661 4.86694 12.1661 6.36094C12.1661 7.85494 10.9601 9.06094 9.46606 9.06094C7.97206 9.06094 6.76606 7.85494 6.76606 6.36094C6.76606 4.86694 7.97206 3.66094 9.46606 3.66094ZM9.46606 16.4409C7.21606 16.4409 5.22706 15.2889 4.06606 13.5429C4.09306 11.7519 7.66606 10.7709 9.46606 10.7709C11.2571 10.7709 14.8391 11.7519 14.8661 13.5429C13.7051 15.2889 11.7161 16.4409 9.46606 16.4409Z" fill="#8C8C8C"/>
</svg>
