<svg width="19" height="19" viewBox="0 0 19 19" fill="none" xmlns="http://www.w3.org/2000/svg">
<path opacity="0.6" d="M8.56606 12.5066H10.3661V14.3066H8.56606V12.5066ZM8.56606 5.30664H10.3661V10.7066H8.56606V5.30664ZM9.45706 0.806641C4.48906 0.806641 0.466064 4.83864 0.466064 9.80664C0.466064 14.7746 4.48906 18.8066 9.45706 18.8066C14.4341 18.8066 18.4661 14.7746 18.4661 9.80664C18.4661 4.83864 14.4341 0.806641 9.45706 0.806641ZM9.46606 17.0066C5.48806 17.0066 2.26606 13.7846 2.26606 9.80664C2.26606 5.82864 5.48806 2.60664 9.46606 2.60664C13.4441 2.60664 16.6661 5.82864 16.6661 9.80664C16.6661 13.7846 13.4441 17.0066 9.46606 17.0066Z" fill="#8C8C8C"/>
</svg>
